<?xml version="1.0" encoding="UTF-8" standalone="no"?>
<!DOCTYPE svg PUBLIC "-//W3C//DTD SVG 1.1//EN" "http://www.w3.org/Graphics/SVG/1.1/DTD/svg11.dtd">
<svg width="100%" height="100%" viewBox="0 0 733 470" version="1.1" xmlns="http://www.w3.org/2000/svg" xmlns:xlink="http://www.w3.org/1999/xlink" xml:space="preserve" xmlns:serif="http://www.serif.com/" style="fill-rule:evenodd;clip-rule:evenodd;stroke-linejoin:round;stroke-miterlimit:2;">
    <g transform="matrix(1,0,0,1,-13459.1,-2143.24)">
        <g transform="matrix(1,0,0,1,5443.15,-0.739271)">
            <g transform="matrix(1,0,0,1,-5443.15,0.739271)">
                <path d="M14115,2262.54C14117,2263.25 14118.1,2265.24 14117.8,2267.28C14117.4,2269.31 14115.7,2270.79 14113.6,2270.79L13864.4,2270.79C13863.9,2270.79 13863.4,2270.71 13863,2270.54L13529.3,2149.1C13527.9,2148.6 13527.1,2147.18 13527.4,2145.74C13527.6,2144.29 13528.9,2143.24 13530.3,2143.24L13782.1,2143.24C13785.5,2143.24 13788.9,2143.84 13792.1,2145L14115,2262.54Z" style="fill:rgb(235,235,235);"/>
            </g>
            <g transform="matrix(1,0,0,1,212.771,-489.974)">
                <path d="M8502.51,2784.66C8511.35,2784.66 8519.84,2788.17 8526.09,2794.43C8532.35,2800.68 8535.86,2809.16 8535.86,2818.01L8535.86,3069.89C8535.86,3078.74 8532.35,3087.22 8526.09,3093.48C8519.84,3099.74 8511.35,3103.25 8502.51,3103.25L8250.62,3103.25C8241.78,3103.25 8233.29,3099.74 8227.04,3093.48C8220.78,3087.22 8217.27,3078.74 8217.27,3069.89L8217.27,2818.01C8217.27,2809.16 8220.78,2800.68 8227.04,2794.43C8233.29,2788.17 8241.78,2784.66 8250.62,2784.66L8502.51,2784.66Z" style="fill:rgb(110,231,184);"/>
            </g>
            <g transform="matrix(1,0,0,1,-5443.15,0.739271)">
                <path d="M13830,2283.16C13842,2287.55 13850,2299.01 13850,2311.84L13850,2564C13850,2573.95 13845.2,2583.28 13837,2589C13828.9,2594.71 13818.4,2596.08 13809.1,2592.67L13479.2,2472.61C13467.2,2468.22 13459.1,2456.76 13459.1,2443.94L13459.1,2164.58C13459.1,2160.84 13461,2157.33 13464,2155.18C13467.1,2153.04 13471,2152.52 13474.5,2153.8L13830,2283.16Z" style="fill:rgb(167,243,208);"/>
            </g>
            <g transform="matrix(1.04217,0.37932,-8.32667e-17,0.959533,-314.669,-3514.67)">
                <path d="M8013.31,2841.36L8062.39,2841.36C8075.7,2841.36 8085.78,2844.76 8092.64,2851.55C8099.51,2858.35 8102.94,2868.4 8102.94,2881.7L8102.94,2897.51C8102.94,2910.4 8099.51,2920.18 8092.64,2926.83C8085.78,2933.49 8075.7,2936.81 8062.39,2936.81L8043.05,2936.81L8043.05,2915.39L8054.9,2915.39C8060.59,2915.39 8064.85,2913.7 8067.69,2910.3C8070.53,2906.9 8071.95,2901.6 8071.95,2894.39L8071.95,2884.41C8071.95,2876.92 8070.57,2871.41 8067.79,2867.88C8065.02,2864.34 8060.72,2862.57 8054.9,2862.57L8037.43,2862.57L8044.3,2855.71L8044.3,2986.93L8013.31,2986.93L8013.31,2841.36ZM8054.49,2930.57L8085.26,2930.57L8105.02,2986.93L8073.41,2986.93L8054.49,2930.57Z" style="fill:rgb(2,44,35);fill-rule:nonzero;"/>
                <path d="M8158.04,2989.01C8142.79,2989.01 8131.25,2985.33 8123.42,2977.99C8115.59,2970.64 8111.67,2959.69 8111.67,2945.13L8111.67,2841.36L8142.65,2841.36L8142.65,2947.62C8142.65,2954.28 8143.94,2959.27 8146.5,2962.6C8149.07,2965.92 8152.91,2967.59 8158.04,2967.59C8168.44,2967.59 8173.64,2960.93 8173.64,2947.62L8173.64,2841.36L8204.62,2841.36L8204.62,2945.13C8204.62,2951.92 8203.48,2958.02 8201.19,2963.43C8198.91,2968.84 8195.68,2973.45 8191.52,2977.26C8187.36,2981.07 8182.44,2983.98 8176.76,2985.99C8171.07,2988 8164.84,2989.01 8158.04,2989.01Z" style="fill:rgb(2,44,35);fill-rule:nonzero;"/>
                <path d="M8215.44,2841.36L8264.51,2841.36C8277.82,2841.36 8287.91,2844.76 8294.77,2851.55C8301.63,2858.35 8305.06,2868.4 8305.06,2881.7L8305.06,2897.51C8305.06,2910.4 8301.63,2920.18 8294.77,2926.83C8287.91,2933.49 8277.82,2936.81 8264.51,2936.81L8245.17,2936.81L8245.17,2915.39L8257.03,2915.39C8262.71,2915.39 8266.97,2913.7 8269.82,2910.3C8272.66,2906.9 8274.08,2901.6 8274.08,2894.39L8274.08,2884.41C8274.08,2876.92 8272.69,2871.41 8269.92,2867.88C8267.15,2864.34 8262.85,2862.57 8257.03,2862.57L8239.56,2862.57L8246.42,2855.71L8246.42,2986.93L8215.44,2986.93L8215.44,2841.36ZM8256.61,2930.57L8287.39,2930.57L8307.14,2986.93L8275.53,2986.93L8256.61,2930.57Z" style="fill:rgb(2,44,35);fill-rule:nonzero;"/>
                <rect x="8315.25" y="2841.36" width="30.984" height="145.564" style="fill:rgb(2,44,35);fill-rule:nonzero;"/>
            </g>
            <g transform="matrix(1,0,0,1,444.097,-467.324)">
                <path d="M8018.02,2944.74L8068.46,2855.68L8099.4,2855.68L8037.9,2961.43L8018.02,2944.74ZM8012.21,2855.68L8040.15,2855.68L8041.46,2986.93L8012.21,2986.93L8012.21,2855.68ZM8044.83,2922.62L8065.27,2904.62L8099.02,2986.93L8069.96,2986.93L8044.83,2922.62Z" style="fill:rgb(2,44,35);fill-rule:nonzero;"/>
                <path d="M8139.9,2988.8C8130.77,2988.8 8122.96,2987.18 8116.46,2983.93C8109.96,2980.68 8105.02,2976.02 8101.65,2969.96C8098.27,2963.9 8096.58,2956.55 8096.58,2947.93L8096.58,2894.68C8096.58,2885.93 8098.27,2878.55 8101.65,2872.55C8105.02,2866.55 8109.96,2861.93 8116.46,2858.68C8122.96,2855.43 8130.77,2853.8 8139.9,2853.8C8149.02,2853.8 8156.8,2855.43 8163.24,2858.68C8169.68,2861.93 8174.61,2866.55 8178.05,2872.55C8181.49,2878.55 8183.21,2885.93 8183.21,2894.68L8183.21,2947.93C8183.21,2956.55 8181.49,2963.9 8178.05,2969.96C8174.61,2976.02 8169.68,2980.68 8163.24,2983.93C8156.8,2987.18 8149.02,2988.8 8139.9,2988.8ZM8139.9,2969.49C8145.15,2969.49 8149.02,2967.9 8151.52,2964.71C8154.02,2961.52 8155.27,2956.74 8155.27,2950.37L8155.27,2892.24C8155.27,2885.87 8153.99,2881.08 8151.43,2877.9C8148.86,2874.71 8145.02,2873.12 8139.9,2873.12C8134.77,2873.12 8130.93,2874.71 8128.36,2877.9C8125.8,2881.08 8124.52,2885.87 8124.52,2892.24L8124.52,2950.37C8124.52,2956.74 8125.77,2961.52 8128.27,2964.71C8130.77,2967.9 8134.65,2969.49 8139.9,2969.49Z" style="fill:rgb(2,44,35);fill-rule:nonzero;"/>
                <path d="M8278.27,2855.68L8278.27,2986.93L8253.9,2986.93L8202.33,2880.8L8219.77,2880.62L8219.77,2986.93L8191.83,2986.93L8191.83,2855.68L8216.02,2855.68L8267.77,2961.62L8250.33,2961.8L8250.33,2855.68L8278.27,2855.68Z" style="fill:rgb(2,44,35);fill-rule:nonzero;"/>
            </g>
        </g>
    </g>
</svg>
